<svg height="1518" width="720" xmlns="http://www.w3.org/2000/svg">
<rect height="1518" fill="#555" width="720"></rect>
<text fill="#7f7" font-family="Courier New" font-size="12" xml:space="preserve">
<tspan x="10" y="26">24 megabytes installed</tspan>
<tspan x="10" y="42"></tspan>
<tspan x="10" y="58">node_modules</tspan>
<tspan x="10" y="74">└─┬ jimp@0.2.27 </tspan>
<tspan x="10" y="90">  ├── bignumber.js@2.4.0 </tspan>
<tspan x="10" y="106">  ├── bmp-js@0.0.1 </tspan>
<tspan x="10" y="122">  ├── es6-promise@3.3.1 </tspan>
<tspan x="10" y="138">  ├── exif-parser@0.1.9 </tspan>
<tspan x="10" y="154">  ├── file-type@3.9.0 </tspan>
<tspan x="10" y="170">  ├── jpeg-js@0.2.0 </tspan>
<tspan x="10" y="186">  ├─┬ load-bmfont@1.3.0 </tspan>
<tspan x="10" y="202">  │ ├── buffer-equal@0.0.1 </tspan>
<tspan x="10" y="218">  │ ├── parse-bmfont-ascii@1.0.6 </tspan>
<tspan x="10" y="234">  │ ├── parse-bmfont-binary@1.0.6 </tspan>
<tspan x="10" y="250">  │ ├─┬ parse-bmfont-xml@1.1.3 </tspan>
<tspan x="10" y="266">  │ │ ├── xml-parse-from-string@1.0.0 </tspan>
<tspan x="10" y="282">  │ │ └─┬ xml2js@0.4.17 </tspan>
<tspan x="10" y="298">  │ │   ├── sax@1.2.2 </tspan>
<tspan x="10" y="314">  │ │   └─┬ xmlbuilder@4.2.1 </tspan>
<tspan x="10" y="330">  │ │     └── lodash@4.17.4 </tspan>
<tspan x="10" y="346">  │ ├─┬ xhr@2.4.0 </tspan>
<tspan x="10" y="362">  │ │ ├─┬ global@4.3.2 </tspan>
<tspan x="10" y="378">  │ │ │ ├─┬ min-document@2.19.0 </tspan>
<tspan x="10" y="394">  │ │ │ │ └── dom-walk@0.1.1 </tspan>
<tspan x="10" y="410">  │ │ │ └── process@0.5.2 </tspan>
<tspan x="10" y="426">  │ │ ├── is-function@1.0.1 </tspan>
<tspan x="10" y="442">  │ │ └─┬ parse-headers@2.0.1 </tspan>
<tspan x="10" y="458">  │ │   ├── for-each@0.3.2 </tspan>
<tspan x="10" y="474">  │ │   └── trim@0.0.1 </tspan>
<tspan x="10" y="490">  │ └── xtend@4.0.1 </tspan>
<tspan x="10" y="506">  ├── mime@1.3.4 </tspan>
<tspan x="10" y="522">  ├── pixelmatch@4.0.2 </tspan>
<tspan x="10" y="538">  ├── pngjs@3.0.1 </tspan>
<tspan x="10" y="554">  ├── read-chunk@1.0.1 </tspan>
<tspan x="10" y="570">  ├─┬ request@2.81.0 </tspan>
<tspan x="10" y="586">  │ ├── aws-sign2@0.6.0 </tspan>
<tspan x="10" y="602">  │ ├── aws4@1.6.0 </tspan>
<tspan x="10" y="618">  │ ├── caseless@0.12.0 </tspan>
<tspan x="10" y="634">  │ ├─┬ combined-stream@1.0.5 </tspan>
<tspan x="10" y="650">  │ │ └── delayed-stream@1.0.0 </tspan>
<tspan x="10" y="666">  │ ├── extend@3.0.0 </tspan>
<tspan x="10" y="682">  │ ├── forever-agent@0.6.1 </tspan>
<tspan x="10" y="698">  │ ├─┬ form-data@2.1.4 </tspan>
<tspan x="10" y="714">  │ │ └── asynckit@0.4.0 </tspan>
<tspan x="10" y="730">  │ ├─┬ har-validator@4.2.1 </tspan>
<tspan x="10" y="746">  │ │ ├─┬ ajv@4.11.7 </tspan>
<tspan x="10" y="762">  │ │ │ ├── co@4.6.0 </tspan>
<tspan x="10" y="778">  │ │ │ └─┬ json-stable-stringify@1.0.1 </tspan>
<tspan x="10" y="794">  │ │ │   └── jsonify@0.0.0 </tspan>
<tspan x="10" y="810">  │ │ └── har-schema@1.0.5 </tspan>
<tspan x="10" y="826">  │ ├─┬ hawk@3.1.3 </tspan>
<tspan x="10" y="842">  │ │ ├── boom@2.10.1 </tspan>
<tspan x="10" y="858">  │ │ ├── cryptiles@2.0.5 </tspan>
<tspan x="10" y="874">  │ │ ├── hoek@2.16.3 </tspan>
<tspan x="10" y="890">  │ │ └── sntp@1.0.9 </tspan>
<tspan x="10" y="906">  │ ├─┬ http-signature@1.1.1 </tspan>
<tspan x="10" y="922">  │ │ ├── assert-plus@0.2.0 </tspan>
<tspan x="10" y="938">  │ │ ├─┬ jsprim@1.4.0 </tspan>
<tspan x="10" y="954">  │ │ │ ├── assert-plus@1.0.0 </tspan>
<tspan x="10" y="970">  │ │ │ ├── extsprintf@1.0.2 </tspan>
<tspan x="10" y="986">  │ │ │ ├── json-schema@0.2.3 </tspan>
<tspan x="10" y="1002">  │ │ │ └── verror@1.3.6 </tspan>
<tspan x="10" y="1018">  │ │ └─┬ sshpk@1.13.0 </tspan>
<tspan x="10" y="1034">  │ │   ├── asn1@0.2.3 </tspan>
<tspan x="10" y="1050">  │ │   ├── assert-plus@1.0.0 </tspan>
<tspan x="10" y="1066">  │ │   ├── bcrypt-pbkdf@1.0.1 </tspan>
<tspan x="10" y="1082">  │ │   ├─┬ dashdash@1.14.1 </tspan>
<tspan x="10" y="1098">  │ │   │ └── assert-plus@1.0.0 </tspan>
<tspan x="10" y="1114">  │ │   ├── ecc-jsbn@0.1.1 </tspan>
<tspan x="10" y="1130">  │ │   ├─┬ getpass@0.1.6 </tspan>
<tspan x="10" y="1146">  │ │   │ └── assert-plus@1.0.0 </tspan>
<tspan x="10" y="1162">  │ │   ├── jodid25519@1.0.2 </tspan>
<tspan x="10" y="1178">  │ │   ├── jsbn@0.1.1 </tspan>
<tspan x="10" y="1194">  │ │   └── tweetnacl@0.14.5 </tspan>
<tspan x="10" y="1210">  │ ├── is-typedarray@1.0.0 </tspan>
<tspan x="10" y="1226">  │ ├── isstream@0.1.2 </tspan>
<tspan x="10" y="1242">  │ ├── json-stringify-safe@5.0.1 </tspan>
<tspan x="10" y="1258">  │ ├─┬ mime-types@2.1.15 </tspan>
<tspan x="10" y="1274">  │ │ └── mime-db@1.27.0 </tspan>
<tspan x="10" y="1290">  │ ├── oauth-sign@0.8.2 </tspan>
<tspan x="10" y="1306">  │ ├── performance-now@0.2.0 </tspan>
<tspan x="10" y="1322">  │ ├── qs@6.4.0 </tspan>
<tspan x="10" y="1338">  │ ├── safe-buffer@5.0.1 </tspan>
<tspan x="10" y="1354">  │ ├── stringstream@0.0.5 </tspan>
<tspan x="10" y="1370">  │ ├─┬ tough-cookie@2.3.2 </tspan>
<tspan x="10" y="1386">  │ │ └── punycode@1.4.1 </tspan>
<tspan x="10" y="1402">  │ ├── tunnel-agent@0.6.0 </tspan>
<tspan x="10" y="1418">  │ └── uuid@3.0.1 </tspan>
<tspan x="10" y="1434">  ├─┬ stream-to-buffer@0.1.0 </tspan>
<tspan x="10" y="1450">  │ └── stream-to@0.2.2 </tspan>
<tspan x="10" y="1466">  ├── tinycolor2@1.4.1 </tspan>
<tspan x="10" y="1482">  └─┬ url-regex@3.2.0 </tspan>
<tspan x="10" y="1498">    └── ip-regex@1.0.3</tspan>
</text>
</svg>
